<svg width="14" height="14" viewBox="0 0 14 14" fill="none" xmlns="http://www.w3.org/2000/svg">
<path d="M4.6 10.3333L7 7.93331L9.4 10.3333L10.3333 9.39998L7.93333 6.99998L10.3333 4.59998L9.4 3.66665L7 6.06665L4.6 3.66665L3.66667 4.59998L6.06667 6.99998L3.66667 9.39998L4.6 10.3333ZM7 13.6666C6.07778 13.6666 5.21111 13.4916 4.4 13.1416C3.58889 12.7916 2.88333 12.3166 2.28333 11.7166C1.68333 11.1166 1.20833 10.4111 0.858333 9.59998C0.508333 8.78887 0.333333 7.9222 0.333333 6.99998C0.333333 6.07776 0.508333 5.21109 0.858333 4.39998C1.20833 3.58887 1.68333 2.88331 2.28333 2.28331C2.88333 1.68331 3.58889 1.20831 4.4 0.858313C5.21111 0.508313 6.07778 0.333313 7 0.333313C7.92222 0.333313 8.78889 0.508313 9.6 0.858313C10.4111 1.20831 11.1167 1.68331 11.7167 2.28331C12.3167 2.88331 12.7917 3.58887 13.1417 4.39998C13.4917 5.21109 13.6667 6.07776 13.6667 6.99998C13.6667 7.9222 13.4917 8.78887 13.1417 9.59998C12.7917 10.4111 12.3167 11.1166 11.7167 11.7166C11.1167 12.3166 10.4111 12.7916 9.6 13.1416C8.78889 13.4916 7.92222 13.6666 7 13.6666Z" fill="#EE3F3E"/>
</svg>
